<svg xmlns="http://www.w3.org/2000/svg" width="640" height="240" viewBox="0 0 640 240" fill="none">
  <rect width="640" height="240" rx="36" fill="#F5F7FA"/>
  <g transform="translate(36 24)">
    
  <defs>
    <linearGradient id="bg" x1="40" y1="20" x2="210" y2="238" gradientUnits="userSpaceOnUse">
      <stop offset="0" stop-color="#16263a"/>
      <stop offset="1" stop-color="#0f1724"/>
    </linearGradient>
    <linearGradient id="out" x1="128" y1="188" x2="128" y2="226" gradientUnits="userSpaceOnUse">
      <stop offset="0" stop-color="#0ea5e9"/>
      <stop offset="1" stop-color="#2563eb"/>
    </linearGradient>
    <filter id="shadow" x="0" y="0" width="256" height="256" filterUnits="userSpaceOnUse" color-interpolation-filters="sRGB">
      <feDropShadow dx="0" dy="12" stdDeviation="16" flood-color="#09111d" flood-opacity="0.28"/>
    </filter>
    <filter id="glow" x="0" y="0" width="256" height="256" filterUnits="userSpaceOnUse" color-interpolation-filters="sRGB">
      <feGaussianBlur stdDeviation="22"/>
    </filter>
  </defs>
  <g filter="url(#shadow)">
    <rect x="16" y="16" width="224" height="224" rx="64" fill="url(#bg)"/>
    <rect x="16.5" y="16.5" width="223" height="223" rx="63.5" stroke="#223652"/>
  </g>
  <ellipse cx="84" cy="64" rx="48" ry="26" fill="#8ed5ff" fill-opacity="0.14" filter="url(#glow)"/>
  <path d="M72 60V86C72 98.15 81.85 108 94 108H108V126" stroke="#fb923c" stroke-width="18" stroke-linecap="round" stroke-linejoin="round"/>
  <path d="M128 48V126" stroke="#22c5f6" stroke-width="18" stroke-linecap="round"/>
  <path d="M184 60V86C184 98.15 174.15 108 162 108H148V126" stroke="#2563eb" stroke-width="18" stroke-linecap="round" stroke-linejoin="round"/>
  <rect x="86" y="126" width="84" height="62" rx="18" fill="#f8fbff"/>
  <path d="M150 126H170V146" fill="#d8e7ff"/>
  <rect x="104" y="160" width="48" height="10" rx="5" fill="#38bdf8"/>
  <path d="M128 188V206" stroke="url(#out)" stroke-width="18" stroke-linecap="round"/>
  <path d="M106 204L128 226L150 204" fill="url(#out)"/>


  </g>
</svg>
